<?xml version="1.0" encoding="utf-8"?>
<!-- Generator: Adobe Illustrator 19.2.1, SVG Export Plug-In . SVG Version: 6.00 Build 0)  -->
<svg version="1.1" id="Layer_1" xmlns="http://www.w3.org/2000/svg" xmlns:xlink="http://www.w3.org/1999/xlink" x="0px" y="0px"
	 viewBox="0 0 150 150" style="enable-background:new 0 0 150 150;" xml:space="preserve">
<style type="text/css">
	.st0{fill:#96B98A;}
	.st1{fill:#E1B98A;}
	.st2{fill:#87A77C;}
	.st3{fill:#CCA87E;}
	.st4{fill:#E9BACE;}
	.st5{fill:#FFFFFF;}
	.st6{fill:#F1F2F2;}
	.st7{fill:#CFA6B9;}
	.st8{fill:#947A7C;}
	.st9{fill:#59A7F1;}
	.st10{fill:#F0F1F1;}
	.st11{fill:#59B4FF;}
	.st12{fill:#23C7E3;}
	.st13{fill:#FFED98;}
	.st14{fill:#DBDCDD;}
	.st15{fill:#23B4D1;}
	.st16{fill:#4795F1;}
	.st17{fill:#FEDB8B;}
	.st18{fill:#2270CC;}
	.st19{fill:#FFD624;}
	.st20{fill:#FFB724;}
	.st21{fill:#14DB84;}
	.st22{fill:#14AF68;}
	.st23{fill:#58595B;}
	.st24{fill:#8AA860;}
	.st25{fill:#FF899B;}
	.st26{fill:#FF7A8E;}
	.st27{fill:#7E9B57;}
	.st28{fill:#FFB8C6;}
	.st29{fill:#845B5F;}
	.st30{fill:#F0C956;}
	.st31{fill:#F0BE45;}
	.st32{fill:#E9C956;}
	.st33{fill:#58393E;}
	.st34{fill:#0094D3;}
	.st35{fill:#2484C6;}
	.st36{fill:#8E6D6A;}
	.st37{fill:#826461;}
	.st38{fill:none;stroke:#58393E;stroke-width:4;stroke-linecap:round;stroke-linejoin:round;stroke-miterlimit:10;}
	.st39{fill:#005A99;}
	.st40{fill:#414042;}
	.st41{fill:#3C3B3D;}
	.st42{fill:#005490;}
	.st43{fill:#0087EE;}
	.st44{fill:#4ED1FF;}
	.st45{fill:#C3D79B;}
	.st46{fill:#FFFEEE;}
	.st47{fill:#9CAD8C;}
	.st48{fill:#5B5C5E;}
	.st49{fill:#C4B795;}
	.st50{fill:#E5E6E7;}
	.st51{fill:#BBBDBF;}
	.st52{fill:#EAEBEB;}
	.st53{fill:#B38E62;}
	.st54{fill:#4D4E50;}
	.st55{fill:#656568;}
	.st56{fill:#93764F;}
	.st57{fill:#CDAA6D;}
	.st58{fill:#F0FFFF;}
	.st59{fill:#BDE3FF;}
	.st60{fill:#C5FFFF;}
	.st61{fill:#F8F8F8;}
	.st62{fill:#6886C5;}
	.st63{fill:#BC9D8C;}
	.st64{fill:#594A42;}
	.st65{fill:#6253FF;}
	.st66{fill:#E7FB86;}
	.st67{fill:#FFDA5C;}
	.st68{fill:#FFB93D;}
	.st69{fill:#39393A;}
	.st70{fill:#FFB75B;}
	.st71{fill:#C3996C;}
	.st72{fill:#A8855D;}
	.st73{fill:#493C35;}
	.st74{fill:#AE8960;}
	.st75{fill:#856388;}
	.st76{fill:#735F56;}
	.st77{fill:#64534B;}
	.st78{fill:#705373;}
	.st79{fill:#A4FFC0;}
	.st80{fill:#1A9C54;}
</style>
<g>
	<g>
		<polygon class="st5" points="126,135.998 104,135.998 126,60.988 148,135.998 		"/>
		<path class="st5" d="M82.13,118.998c-0.02,0-0.04,0-0.06,0c-9.75,0-17.25-8.87-15.92-18.82l12.73-95.33
			c0.51-3.81,5.86-3.81,6.37,0l12.73,95.33C99.31,110.108,91.84,118.958,82.13,118.998z"/>
		<circle class="st5" cx="30" cy="76.498" r="28"/>
		<polygon class="st79" points="126,60.988 104,135.998 112,135.998 130,74.626 		"/>
		<path class="st79" d="M12,76.498c0-13.752,9.926-25.186,23-27.546c-1.623-0.293-3.292-0.454-5-0.454c-15.46,0-28,12.54-28,28
			c0,15.46,12.54,28,28,28c1.708,0,3.377-0.161,5-0.454C21.926,101.684,12,90.25,12,76.498z"/>
		<path class="st79" d="M74.15,100.178l11.915-89.227L85.25,4.848c-0.51-3.81-5.86-3.81-6.37,0l-12.73,95.33
			c-1.33,9.95,6.17,18.82,15.92,18.82c0.02,0,0.04,0,0.06,0c1.366-0.006,2.68-0.202,3.939-0.535
			C78.371,116.432,73.009,108.711,74.15,100.178z"/>
	</g>
	<g>
		<path class="st80" d="M87.232,4.583c-0.362-2.704-2.486-4.592-5.168-4.592c-2.681,0-4.805,1.888-5.167,4.593l-12.729,95.33
			c-0.725,5.422,0.902,10.865,4.465,14.936c2.986,3.411,7.096,5.55,11.497,6.04v27.109c0,1.104,0.896,2,2,2s2-0.896,2-2v-27.127
			c4.365-0.518,8.438-2.659,11.395-6.054c3.544-4.066,5.161-9.5,4.438-14.904L87.232,4.583z M92.509,112.191
			c-2.231,2.561-5.159,4.155-8.379,4.638v-18.83c0-1.104-0.896-2-2-2s-2,0.896-2,2v18.849c-3.263-0.458-6.229-2.052-8.487-4.633
			c-2.803-3.202-4.082-7.492-3.51-11.771l12.729-95.33c0.136-1.013,0.886-1.123,1.202-1.123c0.317,0,1.067,0.109,1.203,1.122
			l12.729,95.331C96.568,104.709,95.297,108.991,92.509,112.191z"/>
		<path class="st80" d="M136,14.998c0-1.104-0.896-2-2-2h-33c-1.104,0-2,0.896-2,2s0.896,2,2,2h33
			C135.105,16.998,136,16.102,136,14.998z"/>
		<path class="st80" d="M72,125.998H32v-19.574c15.612-1.034,28-14.057,28-29.926c0-16.542-13.458-30-30-30s-30,13.458-30,30
			c0,15.869,12.388,28.892,28,29.926v19.574H7c-1.104,0-2,0.896-2,2s0.896,2,2,2h21v18c0,1.104,0.896,2,2,2s2-0.896,2-2v-18h40
			c1.104,0,2-0.896,2-2S73.105,125.998,72,125.998z M4,76.498c0-14.337,11.663-26,26-26s26,11.664,26,26
			c0,13.663-10.595,24.89-24,25.915v-7.581l16.345-14.854c0.817-0.743,0.878-2.008,0.136-2.825
			c-0.744-0.817-2.008-0.878-2.825-0.136L32,89.428v-8.775l7.345-6.675c0.817-0.743,0.878-2.008,0.136-2.825
			c-0.744-0.817-2.008-0.878-2.825-0.135L30,77.066l-6.655-6.048c-0.816-0.743-2.082-0.681-2.825,0.135
			c-0.742,0.817-0.682,2.083,0.136,2.825L28,80.653v8.775l-13.655-12.41c-0.816-0.742-2.082-0.682-2.825,0.136
			c-0.742,0.817-0.682,2.082,0.136,2.825L28,94.832v7.581C14.595,101.388,4,90.162,4,76.498z"/>
		<path class="st80" d="M111,21.998c0,1.104,0.896,2,2,2h35c1.104,0,2-0.896,2-2s-0.896-2-2-2h-35
			C111.896,19.998,111,20.893,111,21.998z"/>
		<path class="st80" d="M127.919,60.425c-0.25-0.852-1.031-1.437-1.919-1.437s-1.669,0.585-1.919,1.437l-22,75.011
			c-0.178,0.604-0.06,1.257,0.318,1.762c0.377,0.504,0.971,0.801,1.601,0.801h20v10c0,1.104,0.896,2,2,2s2-0.896,2-2v-10h20
			c0.63,0,1.224-0.297,1.601-0.801c0.378-0.505,0.496-1.157,0.318-1.762L127.919,60.425z M128,133.998v-3.172l6.914-6.914
			c0.781-0.781,0.781-2.047,0-2.828s-2.047-0.781-2.828,0L128,125.17v-23.172c0-1.104-0.896-2-2-2s-2,0.896-2,2v11.172l-4.086-4.086
			c-0.781-0.781-2.047-0.781-2.828,0s-0.781,2.047,0,2.828l6.914,6.914v15.172h-17.329L126,68.095l19.329,65.904H128z"/>
	</g>
</g>
</svg>
